<svg width="282" height="38" viewBox="0 0 282 38" fill="none" xmlns="http://www.w3.org/2000/svg">
<path d="M9.24721 0L18.3779 28.7017H18.7284L27.8775 0H36.7315L23.7088 37.7771H13.416L0.374756 0H9.24721Z" fill="#CAA8F5"/>
<rect x="37.7219" y="0.146729" width="29.7039" height="7.7796" fill="#CAA8F5"/>
<rect x="37.7219" y="14.9988" width="29.7039" height="7.7796" fill="#CAA8F5"/>
<rect x="37.7219" y="29.8508" width="29.7039" height="7.7796" fill="#CAA8F5"/>
<path d="M68.4532 37.7771V33.0365L87.3048 6.58517H68.4163V0H97.3394V4.74058L78.4693 31.1919H97.3762V37.7771H68.4532Z" fill="#CAA8F5"/>
<path d="M98.3669 6.58517V0H129.393V6.58517H117.827V37.7771H109.932V6.58517H98.3669Z" fill="#CAA8F5"/>
<path d="M138.942 37.7771H130.383L143.425 0H153.717L166.74 37.7771H158.181L148.718 8.63266H148.423L138.942 37.7771Z" fill="#CAA8F5"/>
<path d="M272.895 37.7466C270.026 37.7466 267.731 37.1113 266.01 35.8408C264.289 34.5498 263.284 32.7362 262.998 30.4001H267.547C267.69 31.5886 268.264 32.5313 269.268 33.228C270.272 33.9043 271.553 34.2424 273.111 34.2424C274.381 34.2424 275.355 34.017 276.031 33.5661C276.727 33.1153 277.076 32.5108 277.076 31.7526C277.076 31.0353 276.871 30.4615 276.461 30.0312C276.051 29.5804 275.344 29.2218 274.34 28.9553L270.221 27.818C268.11 27.2237 266.563 26.4143 265.58 25.3897C264.616 24.3446 264.135 23.0433 264.135 21.4859C264.135 20.1538 264.473 19.0063 265.149 18.0431C265.846 17.0595 266.819 16.3115 268.069 15.7992C269.319 15.2664 270.785 15 272.465 15C275.047 15 277.107 15.6148 278.644 16.8443C280.18 18.0534 281.051 19.662 281.256 21.6703H276.707C276.502 20.5842 276 19.785 275.201 19.2727C274.422 18.7604 273.418 18.5042 272.188 18.5042C271.123 18.5042 270.272 18.7091 269.637 19.119C269.002 19.5288 268.684 20.0821 268.684 20.7789C268.684 21.3117 268.858 21.8035 269.207 22.2543C269.555 22.6847 270.283 23.0535 271.389 23.3609L275.508 24.4982C277.68 25.0925 279.238 25.9122 280.18 26.9573C281.144 27.982 281.625 29.2832 281.625 30.8611C281.625 33.0743 280.857 34.7752 279.32 35.9638C277.783 37.1523 275.641 37.7466 272.895 37.7466Z" fill="#1E3A8A"/>
<path d="M272.895 37.7466C270.026 37.7466 267.731 37.1113 266.01 35.8408C264.289 34.5498 263.284 32.7362 262.998 30.4001H267.547C267.69 31.5886 268.264 32.5313 269.268 33.228C270.272 33.9043 271.553 34.2424 273.111 34.2424C274.381 34.2424 275.355 34.017 276.031 33.5661C276.727 33.1153 277.076 32.5108 277.076 31.7526C277.076 31.0353 276.871 30.4615 276.461 30.0312C276.051 29.5804 275.344 29.2218 274.34 28.9553L270.221 27.818C268.11 27.2237 266.563 26.4143 265.58 25.3897C264.616 24.3446 264.135 23.0433 264.135 21.4859C264.135 20.1538 264.473 19.0063 265.149 18.0431C265.846 17.0595 266.819 16.3115 268.069 15.7992C269.319 15.2664 270.785 15 272.465 15C275.047 15 277.107 15.6148 278.644 16.8443C280.18 18.0534 281.051 19.662 281.256 21.6703H276.707C276.502 20.5842 276 19.785 275.201 19.2727C274.422 18.7604 273.418 18.5042 272.188 18.5042C271.123 18.5042 270.272 18.7091 269.637 19.119C269.002 19.5288 268.684 20.0821 268.684 20.7789C268.684 21.3117 268.858 21.8035 269.207 22.2543C269.555 22.6847 270.283 23.0535 271.389 23.3609L275.508 24.4982C277.68 25.0925 279.238 25.9122 280.18 26.9573C281.144 27.982 281.625 29.2832 281.625 30.8611C281.625 33.0743 280.857 34.7752 279.32 35.9638C277.783 37.1523 275.641 37.7466 272.895 37.7466Z" fill="black" fill-opacity="0.2"/>
<path d="M237.591 37.47V15.3381H244.969L251.116 36.6708H248.442L254.59 15.3381H261.998V37.47H257.326V16.6599H258.125L252.131 37.47H247.243L241.311 16.8443H242.079V37.47H237.591Z" fill="#1E3A8A"/>
<path d="M237.591 37.47V15.3381H244.969L251.116 36.6708H248.442L254.59 15.3381H261.998V37.47H257.326V16.6599H258.125L252.131 37.47H247.243L241.311 16.8443H242.079V37.47H237.591Z" fill="black" fill-opacity="0.2"/>
<path d="M231.857 37.47V15.3381H236.591V37.47H231.857Z" fill="#1E3A8A"/>
<path d="M231.857 37.47V15.3381H236.591V37.47H231.857Z" fill="black" fill-opacity="0.2"/>
<path d="M214.531 37.5261H209.504L217.163 15.3381H223.209L230.857 37.5261H225.83L220.273 20.4084H220.099L214.531 37.5261Z" fill="#1E3A8A"/>
<path d="M214.531 37.5261H209.504L217.163 15.3381H223.209L230.857 37.5261H225.83L220.273 20.4084H220.099L214.531 37.5261Z" fill="black" fill-opacity="0.2"/>
<path d="M193.134 37.47V15.3381H197.868V37.47H193.134ZM195.347 37.47V33.8428H208.504V37.47H195.347Z" fill="#1E3A8A"/>
<path d="M193.134 37.47V15.3381H197.868V37.47H193.134ZM195.347 37.47V33.8428H208.504V37.47H195.347Z" fill="black" fill-opacity="0.2"/>
<path d="M181.837 37.7771C180.238 37.7771 178.763 37.5005 177.411 36.9472C176.058 36.3734 174.88 35.5742 173.876 34.5496C172.892 33.5249 172.123 32.3159 171.57 30.9224C171.017 29.5084 170.74 27.9715 170.74 26.3116C170.74 24.6517 171.007 23.1353 171.539 21.7623C172.093 20.3893 172.861 19.2007 173.845 18.1966C174.849 17.172 176.027 16.3933 177.38 15.8605C178.732 15.3072 180.218 15.0305 181.837 15.0305C183.661 15.0305 185.3 15.3891 186.755 16.1064C188.231 16.8031 189.429 17.797 190.351 19.088C191.294 20.3586 191.868 21.8545 192.073 23.5759H187.462C187.196 21.9979 186.55 20.8094 185.526 20.0102C184.501 19.1905 183.282 18.7806 181.868 18.7806C180.618 18.7806 179.511 19.0778 178.548 19.6721C177.605 20.2663 176.867 21.127 176.335 22.2541C175.802 23.3607 175.535 24.7029 175.535 26.2809C175.535 27.8793 175.802 29.2625 176.335 30.4306C176.888 31.5782 177.646 32.4696 178.609 33.1048C179.572 33.7196 180.679 34.027 181.929 34.027C183.261 34.027 184.439 33.6274 185.464 32.8282C186.489 32.029 187.155 30.8404 187.462 29.2625H192.134C191.868 30.9839 191.263 32.4901 190.321 33.7811C189.378 35.0516 188.179 36.0353 186.724 36.732C185.269 37.4287 183.64 37.7771 181.837 37.7771Z" fill="#1E3A8A"/>
<path d="M181.837 37.7771C180.238 37.7771 178.763 37.5005 177.411 36.9472C176.058 36.3734 174.88 35.5742 173.876 34.5496C172.892 33.5249 172.123 32.3159 171.57 30.9224C171.017 29.5084 170.74 27.9715 170.74 26.3116C170.74 24.6517 171.007 23.1353 171.539 21.7623C172.093 20.3893 172.861 19.2007 173.845 18.1966C174.849 17.172 176.027 16.3933 177.38 15.8605C178.732 15.3072 180.218 15.0305 181.837 15.0305C183.661 15.0305 185.3 15.3891 186.755 16.1064C188.231 16.8031 189.429 17.797 190.351 19.088C191.294 20.3586 191.868 21.8545 192.073 23.5759H187.462C187.196 21.9979 186.55 20.8094 185.526 20.0102C184.501 19.1905 183.282 18.7806 181.868 18.7806C180.618 18.7806 179.511 19.0778 178.548 19.6721C177.605 20.2663 176.867 21.127 176.335 22.2541C175.802 23.3607 175.535 24.7029 175.535 26.2809C175.535 27.8793 175.802 29.2625 176.335 30.4306C176.888 31.5782 177.646 32.4696 178.609 33.1048C179.572 33.7196 180.679 34.027 181.929 34.027C183.261 34.027 184.439 33.6274 185.464 32.8282C186.489 32.029 187.155 30.8404 187.462 29.2625H192.134C191.868 30.9839 191.263 32.4901 190.321 33.7811C189.378 35.0516 188.179 36.0353 186.724 36.732C185.269 37.4287 183.64 37.7771 181.837 37.7771Z" fill="black" fill-opacity="0.2"/>
</svg>
