<svg width="175" height="22" viewBox="0 0 175 22" fill="none" xmlns="http://www.w3.org/2000/svg">
<path d="M5.88562 0L11.203 16.7148H11.4071L16.7352 0H21.8915L14.3075 22H8.31335L0.718628 0H5.88562Z" fill="#FF0707"/>
<rect x="22.8915" y="0.0854492" width="17.2985" height="4.53055" fill="#FF0707"/>
<rect x="22.8915" y="8.73486" width="17.2985" height="4.53055" fill="#FF0707"/>
<rect x="22.8915" y="17.3838" width="17.2985" height="4.53055" fill="#FF0707"/>
<path d="M41.2114 22V19.2393L52.1899 3.83496H41.1899V0H58.0337V2.76074L47.0444 18.165H58.0552V22H41.2114Z" fill="#FF0707"/>
<path d="M59.0552 3.83496V0H77.1235V3.83496H70.3882V22H65.7905V3.83496H59.0552Z" fill="#FF0707"/>
<path d="M83.1079 22H78.1235L85.7183 0H91.7124L99.2964 22H94.312L88.8013 5.02734H88.6294L83.1079 22Z" fill="#FF0707"/>
<path d="M169.673 21.9818C167.979 21.9818 166.624 21.6066 165.607 20.8563C164.59 20.0939 163.997 19.0228 163.828 17.6432H166.515C166.599 18.3451 166.938 18.9018 167.531 19.3133C168.124 19.7126 168.881 19.9123 169.8 19.9123C170.551 19.9123 171.126 19.7792 171.525 19.513C171.936 19.2467 172.142 18.8897 172.142 18.4419C172.142 18.0183 172.021 17.6795 171.779 17.4253C171.537 17.1591 171.12 16.9473 170.527 16.79L168.094 16.1183C166.848 15.7673 165.934 15.2893 165.353 14.6842C164.784 14.067 164.5 13.2985 164.5 12.3787C164.5 11.592 164.699 10.9143 165.099 10.3455C165.51 9.76461 166.085 9.32288 166.823 9.02033C167.562 8.70567 168.427 8.54834 169.419 8.54834C170.944 8.54834 172.16 8.91141 173.068 9.63754C173.976 10.3516 174.49 11.3016 174.611 12.4876H171.924C171.803 11.8462 171.507 11.3742 171.035 11.0717C170.575 10.7691 169.982 10.6178 169.256 10.6178C168.627 10.6178 168.124 10.7388 167.749 10.9809C167.374 11.2229 167.186 11.5497 167.186 11.9612C167.186 12.2758 167.289 12.5663 167.495 12.8325C167.701 13.0867 168.13 13.3045 168.784 13.486L171.216 14.1577C172.499 14.5087 173.419 14.9928 173.976 15.61C174.545 16.2151 174.829 16.9836 174.829 17.9155C174.829 19.2225 174.375 20.227 173.467 20.9289C172.56 21.6308 171.295 21.9818 169.673 21.9818Z" fill="#1E3A8A"/>
<path d="M169.673 21.9818C167.979 21.9818 166.624 21.6066 165.607 20.8563C164.59 20.0939 163.997 19.0228 163.828 17.6432H166.515C166.599 18.3451 166.938 18.9018 167.531 19.3133C168.124 19.7126 168.881 19.9123 169.8 19.9123C170.551 19.9123 171.126 19.7792 171.525 19.513C171.936 19.2467 172.142 18.8897 172.142 18.4419C172.142 18.0183 172.021 17.6795 171.779 17.4253C171.537 17.1591 171.12 16.9473 170.527 16.79L168.094 16.1183C166.848 15.7673 165.934 15.2893 165.353 14.6842C164.784 14.067 164.5 13.2985 164.5 12.3787C164.5 11.592 164.699 10.9143 165.099 10.3455C165.51 9.76461 166.085 9.32288 166.823 9.02033C167.562 8.70567 168.427 8.54834 169.419 8.54834C170.944 8.54834 172.16 8.91141 173.068 9.63754C173.976 10.3516 174.49 11.3016 174.611 12.4876H171.924C171.803 11.8462 171.507 11.3742 171.035 11.0717C170.575 10.7691 169.982 10.6178 169.256 10.6178C168.627 10.6178 168.124 10.7388 167.749 10.9809C167.374 11.2229 167.186 11.5497 167.186 11.9612C167.186 12.2758 167.289 12.5663 167.495 12.8325C167.701 13.0867 168.13 13.3045 168.784 13.486L171.216 14.1577C172.499 14.5087 173.419 14.9928 173.976 15.61C174.545 16.2151 174.829 16.9836 174.829 17.9155C174.829 19.2225 174.375 20.227 173.467 20.9289C172.56 21.6308 171.295 21.9818 169.673 21.9818Z" fill="black" fill-opacity="0.2"/>
<path d="M148.414 21.8185V8.74805H152.771L156.402 21.3465H154.822L158.453 8.74805H162.828V21.8185H160.069V9.52864H160.541L157.001 21.8185H154.114L150.611 9.63756H151.065V21.8185H148.414Z" fill="#1E3A8A"/>
<path d="M148.414 21.8185V8.74805H152.771L156.402 21.3465H154.822L158.453 8.74805H162.828V21.8185H160.069V9.52864H160.541L157.001 21.8185H154.114L150.611 9.63756H151.065V21.8185H148.414Z" fill="black" fill-opacity="0.2"/>
<path d="M144.619 21.8185V8.74805H147.414V21.8185H144.619Z" fill="#1E3A8A"/>
<path d="M144.619 21.8185V8.74805H147.414V21.8185H144.619Z" fill="black" fill-opacity="0.2"/>
<path d="M133.977 21.8516H131.008L135.531 8.74805H139.101L143.619 21.8516H140.65L137.368 11.7424H137.265L133.977 21.8516Z" fill="#1E3A8A"/>
<path d="M133.977 21.8516H131.008L135.531 8.74805H139.101L143.619 21.8516H140.65L137.368 11.7424H137.265L133.977 21.8516Z" fill="black" fill-opacity="0.2"/>
<path d="M120.931 21.8185V8.74805H123.727V21.8185H120.931ZM122.238 21.8185V19.6764H130.008V21.8185H122.238Z" fill="#1E3A8A"/>
<path d="M120.931 21.8185V8.74805H123.727V21.8185H120.931ZM122.238 21.8185V19.6764H130.008V21.8185H122.238Z" fill="black" fill-opacity="0.2"/>
<path d="M113.85 21.9999C112.906 21.9999 112.034 21.8365 111.236 21.5097C110.437 21.1709 109.741 20.6989 109.148 20.0938C108.567 19.4887 108.113 18.7746 107.787 17.9517C107.46 17.1166 107.296 16.209 107.296 15.2287C107.296 14.2484 107.454 13.3528 107.768 12.542C108.095 11.7311 108.549 11.0292 109.13 10.4362C109.723 9.83109 110.419 9.3712 111.218 9.05655C112.016 8.72979 112.894 8.56641 113.85 8.56641C114.927 8.56641 115.895 8.77819 116.754 9.20177C117.626 9.61325 118.334 10.2002 118.878 10.9626C119.435 11.713 119.774 12.5964 119.895 13.613H117.172C117.014 12.6812 116.633 11.9792 116.028 11.5072C115.423 11.0232 114.703 10.7811 113.868 10.7811C113.13 10.7811 112.476 10.9566 111.907 11.3076C111.351 11.6585 110.915 12.1668 110.6 12.8324C110.286 13.486 110.128 14.2787 110.128 15.2105C110.128 16.1545 110.286 16.9714 110.6 17.6612C110.927 18.339 111.375 18.8654 111.944 19.2406C112.512 19.6036 113.166 19.7852 113.904 19.7852C114.691 19.7852 115.387 19.5492 115.992 19.0772C116.597 18.6052 116.99 17.9033 117.172 16.9714H119.931C119.774 17.988 119.417 18.8775 118.86 19.6399C118.303 20.3903 117.595 20.9712 116.736 21.3827C115.877 21.7941 114.915 21.9999 113.85 21.9999Z" fill="#1E3A8A"/>
<path d="M113.85 21.9999C112.906 21.9999 112.034 21.8365 111.236 21.5097C110.437 21.1709 109.741 20.6989 109.148 20.0938C108.567 19.4887 108.113 18.7746 107.787 17.9517C107.46 17.1166 107.296 16.209 107.296 15.2287C107.296 14.2484 107.454 13.3528 107.768 12.542C108.095 11.7311 108.549 11.0292 109.13 10.4362C109.723 9.83109 110.419 9.3712 111.218 9.05655C112.016 8.72979 112.894 8.56641 113.85 8.56641C114.927 8.56641 115.895 8.77819 116.754 9.20177C117.626 9.61325 118.334 10.2002 118.878 10.9626C119.435 11.713 119.774 12.5964 119.895 13.613H117.172C117.014 12.6812 116.633 11.9792 116.028 11.5072C115.423 11.0232 114.703 10.7811 113.868 10.7811C113.13 10.7811 112.476 10.9566 111.907 11.3076C111.351 11.6585 110.915 12.1668 110.6 12.8324C110.286 13.486 110.128 14.2787 110.128 15.2105C110.128 16.1545 110.286 16.9714 110.6 17.6612C110.927 18.339 111.375 18.8654 111.944 19.2406C112.512 19.6036 113.166 19.7852 113.904 19.7852C114.691 19.7852 115.387 19.5492 115.992 19.0772C116.597 18.6052 116.99 17.9033 117.172 16.9714H119.931C119.774 17.988 119.417 18.8775 118.86 19.6399C118.303 20.3903 117.595 20.9712 116.736 21.3827C115.877 21.7941 114.915 21.9999 113.85 21.9999Z" fill="black" fill-opacity="0.2"/>
</svg>
