<svg width="180" height="22" viewBox="0 0 180 22" fill="none" xmlns="http://www.w3.org/2000/svg">
<path d="M5.16699 0L10.4844 16.7148H10.6885L16.0166 0H21.1729L13.5889 22H7.59473L0 0H5.16699Z" fill="#444444"/>
<rect x="22.4084" y="0.0854492" width="17.2985" height="4.53055" fill="#444444"/>
<rect x="22.4084" y="8.73486" width="17.2985" height="4.53055" fill="#444444"/>
<rect x="22.4084" y="17.3838" width="17.2985" height="4.53055" fill="#444444"/>
<path d="M40.9641 22V19.2393L51.9426 3.83496H40.9426V0H57.7864V2.76074L46.7971 18.165H57.8079V22H40.9641Z" fill="#444444"/>
<path d="M59.0435 3.83496V0H77.1118V3.83496H70.3765V22H65.7788V3.83496H59.0435Z" fill="#444444"/>
<path d="M83.3317 22H78.3473L85.942 0H91.9362L99.5201 22H94.5358L89.025 5.02734H88.8532L83.3317 22Z" fill="#444444"/>
<path d="M174.392 21.9818C172.698 21.9818 171.342 21.6066 170.325 20.8563C169.309 20.0939 168.716 19.0228 168.546 17.6432H171.233C171.318 18.3451 171.657 18.9018 172.25 19.3133C172.843 19.7126 173.599 19.9123 174.519 19.9123C175.269 19.9123 175.844 19.7792 176.243 19.513C176.655 19.2467 176.861 18.8897 176.861 18.4419C176.861 18.0183 176.74 17.6795 176.498 17.4253C176.256 17.1591 175.838 16.9473 175.245 16.79L172.812 16.1183C171.566 15.7673 170.652 15.2893 170.071 14.6842C169.503 14.067 169.218 13.2985 169.218 12.3787C169.218 11.592 169.418 10.9143 169.817 10.3455C170.229 9.76461 170.804 9.32288 171.542 9.02033C172.28 8.70567 173.145 8.54834 174.138 8.54834C175.663 8.54834 176.879 8.91141 177.787 9.63754C178.694 10.3516 179.209 11.3016 179.33 12.4876H176.643C176.522 11.8462 176.225 11.3742 175.753 11.0717C175.293 10.7691 174.7 10.6178 173.974 10.6178C173.345 10.6178 172.843 10.7388 172.468 10.9809C172.092 11.2229 171.905 11.5497 171.905 11.9612C171.905 12.2758 172.008 12.5663 172.213 12.8325C172.419 13.0867 172.849 13.3045 173.502 13.486L175.935 14.1577C177.218 14.5087 178.137 14.9928 178.694 15.61C179.263 16.2151 179.547 16.9836 179.547 17.9155C179.547 19.2225 179.094 20.227 178.186 20.9289C177.278 21.6308 176.014 21.9818 174.392 21.9818Z" fill="#1E3A8A"/>
<path d="M174.392 21.9818C172.698 21.9818 171.342 21.6066 170.325 20.8563C169.309 20.0939 168.716 19.0228 168.546 17.6432H171.233C171.318 18.3451 171.657 18.9018 172.25 19.3133C172.843 19.7126 173.599 19.9123 174.519 19.9123C175.269 19.9123 175.844 19.7792 176.243 19.513C176.655 19.2467 176.861 18.8897 176.861 18.4419C176.861 18.0183 176.74 17.6795 176.498 17.4253C176.256 17.1591 175.838 16.9473 175.245 16.79L172.812 16.1183C171.566 15.7673 170.652 15.2893 170.071 14.6842C169.503 14.067 169.218 13.2985 169.218 12.3787C169.218 11.592 169.418 10.9143 169.817 10.3455C170.229 9.76461 170.804 9.32288 171.542 9.02033C172.28 8.70567 173.145 8.54834 174.138 8.54834C175.663 8.54834 176.879 8.91141 177.787 9.63754C178.694 10.3516 179.209 11.3016 179.33 12.4876H176.643C176.522 11.8462 176.225 11.3742 175.753 11.0717C175.293 10.7691 174.7 10.6178 173.974 10.6178C173.345 10.6178 172.843 10.7388 172.468 10.9809C172.092 11.2229 171.905 11.5497 171.905 11.9612C171.905 12.2758 172.008 12.5663 172.213 12.8325C172.419 13.0867 172.849 13.3045 173.502 13.486L175.935 14.1577C177.218 14.5087 178.137 14.9928 178.694 15.61C179.263 16.2151 179.547 16.9836 179.547 17.9155C179.547 19.2225 179.094 20.227 178.186 20.9289C177.278 21.6308 176.014 21.9818 174.392 21.9818Z" fill="black" fill-opacity="0.2"/>
<path d="M152.44 21.8185V8.74805H156.796L160.427 21.3465H158.848L162.478 8.74805H166.853V21.8185H164.094V9.52864H164.566L161.026 21.8185H158.14L154.636 9.63756H155.09V21.8185H152.44Z" fill="#1E3A8A"/>
<path d="M152.44 21.8185V8.74805H156.796L160.427 21.3465H158.848L162.478 8.74805H166.853V21.8185H164.094V9.52864H164.566L161.026 21.8185H158.14L154.636 9.63756H155.09V21.8185H152.44Z" fill="black" fill-opacity="0.2"/>
<path d="M147.951 21.8185V8.74805H150.747V21.8185H147.951Z" fill="#1E3A8A"/>
<path d="M147.951 21.8185V8.74805H150.747V21.8185H147.951Z" fill="black" fill-opacity="0.2"/>
<path d="M136.616 21.8516H133.647L138.171 8.74805H141.741L146.258 21.8516H143.289L140.007 11.7424H139.904L136.616 21.8516Z" fill="#1E3A8A"/>
<path d="M136.616 21.8516H133.647L138.171 8.74805H141.741L146.258 21.8516H143.289L140.007 11.7424H139.904L136.616 21.8516Z" fill="black" fill-opacity="0.2"/>
<path d="M122.877 21.8185V8.74805H125.673V21.8185H122.877ZM124.184 21.8185V19.6764H131.954V21.8185H124.184Z" fill="#1E3A8A"/>
<path d="M122.877 21.8185V8.74805H125.673V21.8185H122.877ZM124.184 21.8185V19.6764H131.954V21.8185H124.184Z" fill="black" fill-opacity="0.2"/>
<path d="M115.103 21.9999C114.159 21.9999 113.288 21.8365 112.489 21.5097C111.69 21.1709 110.994 20.6989 110.401 20.0938C109.82 19.4887 109.367 18.7746 109.04 17.9517C108.713 17.1166 108.55 16.209 108.55 15.2287C108.55 14.2484 108.707 13.3528 109.022 12.542C109.348 11.7311 109.802 11.0292 110.383 10.4362C110.976 9.83109 111.672 9.3712 112.471 9.05655C113.27 8.72979 114.147 8.56641 115.103 8.56641C116.18 8.56641 117.148 8.77819 118.008 9.20177C118.879 9.61325 119.587 10.2002 120.132 10.9626C120.688 11.713 121.027 12.5964 121.148 13.613H118.425C118.268 12.6812 117.887 11.9792 117.281 11.5072C116.676 11.0232 115.956 10.7811 115.121 10.7811C114.383 10.7811 113.729 10.9566 113.161 11.3076C112.604 11.6585 112.168 12.1668 111.854 12.8324C111.539 13.486 111.382 14.2787 111.382 15.2105C111.382 16.1545 111.539 16.9714 111.854 17.6612C112.18 18.339 112.628 18.8654 113.197 19.2406C113.766 19.6036 114.419 19.7852 115.157 19.7852C115.944 19.7852 116.64 19.5492 117.245 19.0772C117.85 18.6052 118.244 17.9033 118.425 16.9714H121.184C121.027 17.988 120.67 18.8775 120.113 19.6399C119.557 20.3903 118.849 20.9712 117.989 21.3827C117.13 21.7941 116.168 21.9999 115.103 21.9999Z" fill="#1E3A8A"/>
<path d="M115.103 21.9999C114.159 21.9999 113.288 21.8365 112.489 21.5097C111.69 21.1709 110.994 20.6989 110.401 20.0938C109.82 19.4887 109.367 18.7746 109.04 17.9517C108.713 17.1166 108.55 16.209 108.55 15.2287C108.55 14.2484 108.707 13.3528 109.022 12.542C109.348 11.7311 109.802 11.0292 110.383 10.4362C110.976 9.83109 111.672 9.3712 112.471 9.05655C113.27 8.72979 114.147 8.56641 115.103 8.56641C116.18 8.56641 117.148 8.77819 118.008 9.20177C118.879 9.61325 119.587 10.2002 120.132 10.9626C120.688 11.713 121.027 12.5964 121.148 13.613H118.425C118.268 12.6812 117.887 11.9792 117.281 11.5072C116.676 11.0232 115.956 10.7811 115.121 10.7811C114.383 10.7811 113.729 10.9566 113.161 11.3076C112.604 11.6585 112.168 12.1668 111.854 12.8324C111.539 13.486 111.382 14.2787 111.382 15.2105C111.382 16.1545 111.539 16.9714 111.854 17.6612C112.18 18.339 112.628 18.8654 113.197 19.2406C113.766 19.6036 114.419 19.7852 115.157 19.7852C115.944 19.7852 116.64 19.5492 117.245 19.0772C117.85 18.6052 118.244 17.9033 118.425 16.9714H121.184C121.027 17.988 120.67 18.8775 120.113 19.6399C119.557 20.3903 118.849 20.9712 117.989 21.3827C117.13 21.7941 116.168 21.9999 115.103 21.9999Z" fill="black" fill-opacity="0.2"/>
</svg>
